<svg id="Layer_1" data-name="Layer 1" xmlns="http://www.w3.org/2000/svg" viewBox="0 0 432.19 431.91"><defs><style>.cls-1{fill:#0877ba;}.cls-2{fill:#fbfffa;}</style></defs><path class="cls-1" d="M960.18,755.92c-119.12.73-217.69-98-216.23-218.7,1.42-116.93,98.18-214.64,218.83-213.2,117.56,1.41,214.3,98.66,213.33,218.8C1175.17,659.45,1078.2,755.91,960.18,755.92ZM960,720.13c99.47,0,180.1-80.62,180.11-180.12S1059.5,359.94,960,359.92,779.82,440.58,779.87,540A180.07,180.07,0,0,0,960,720.13Z" transform="translate(-743.93 -324.01)"/><path class="cls-2" d="M962.68,657.31c-18.15,0-35.92-2.48-52.64-9.74-26.32-11.44-40.17-32.71-46-60-.24-1.14-.33-2.32-.67-3.43-1.09-3.62.2-4.81,4-5.29,11.38-1.45,22.72-3.27,34-5.23,2.93-.51,3.78-.08,3.61,3a49,49,0,0,0,2.58,19.18c5.84,16.6,17.79,26.73,34.6,30.71a96.15,96.15,0,0,0,48.44-.73c20.48-5.7,30.12-21,26.48-41-1.77-9.74-7.8-15.86-16.51-19.79-10.88-4.91-22.63-6.53-34.18-8.88-18.25-3.7-36.5-7.44-53.91-14.2-14.06-5.45-26.75-13-34.32-26.72-12.37-22.5-8.67-60.66,24.5-79.25,20-11.23,41.77-14,64.21-12.38,20.1,1.43,38.88,7.14,55.11,19.6,16,12.32,25.28,28.78,29,48.52.5,2.66,0,3.91-3,4.25-10.91,1.25-21.79,2.72-32.69,4.09-2.18.27-4,.71-4.3-2.81-2.09-22.82-12.54-35.57-34.59-42-15.35-4.5-30.81-5.33-46,.85-8.29,3.37-14.79,8.89-18.65,17.14-5.32,11.37-2.47,22.63,7.66,30.07,9.61,7.06,21,9.83,32.2,12.87,19.24,5.23,39,8.57,57.85,15.11,14,4.85,27,11.56,36.35,23.55,14.37,18.46,14.61,45.9.75,66.38-13.24,19.57-32.74,29-55.1,33.74A139.78,139.78,0,0,1,962.68,657.31Z" transform="translate(-743.93 -324.01)"/></svg>